<svg width="32" height="32" viewBox="0 0 32 32" fill="none" xmlns="http://www.w3.org/2000/svg">
<circle cx="16" cy="16" r="14" fill="#0F8A61"/>
<circle cx="16" cy="16" r="15" stroke="#0F8A61" stroke-opacity="0.12" stroke-width="2"/>
<path d="M19.6583 12.7824C19.4231 12.5731 19.0432 12.5731 18.808 12.7824L15.4068 15.8092L16.2571 16.5659L19.6583 13.5337C19.8874 13.3298 19.8874 12.9863 19.6583 12.7824ZM22.2152 12.777L16.2571 18.0793L14.1585 16.2171C13.9233 16.0078 13.5434 16.0078 13.3082 16.2171C13.073 16.4264 13.073 16.7645 13.3082 16.9738L15.8289 19.217C16.0641 19.4263 16.444 19.4263 16.6792 19.217L23.0655 13.5391C23.3006 13.3298 23.3006 12.9917 23.0655 12.7824H23.0594C22.8303 12.5677 22.4504 12.5677 22.2152 12.777ZM9.901 16.9791L12.4217 19.2224C12.6569 19.4317 13.0368 19.4317 13.272 19.2224L13.6941 18.8467L10.7513 16.2171C10.5161 16.0078 10.1362 16.0078 9.901 16.2171C9.66581 16.4264 9.66581 16.7698 9.901 16.9791Z" fill="white"/>
</svg>
