<svg width="32" height="32" viewBox="0 0 32 32" fill="none" xmlns="http://www.w3.org/2000/svg">
<circle cx="16" cy="16" r="14" fill="#B37700"/>
<circle cx="16" cy="16" r="15" stroke="#B37700" stroke-opacity="0.12" stroke-width="2"/>
<rect width="14" height="14" transform="translate(9 8)" fill="white" style="mix-blend-mode:multiply"/>
<path d="M16 18.0625C15.8702 18.0625 15.7433 18.101 15.6354 18.1731C15.5275 18.2452 15.4434 18.3477 15.3937 18.4676C15.344 18.5875 15.331 18.7195 15.3564 18.8468C15.3817 18.9741 15.4442 19.091 15.536 19.1828C15.6277 19.2746 15.7447 19.3371 15.872 19.3624C15.9993 19.3877 16.1312 19.3747 16.2511 19.3251C16.3711 19.2754 16.4735 19.1913 16.5457 19.0833C16.6178 18.9754 16.6563 18.8486 16.6563 18.7188C16.6563 18.5447 16.5871 18.3778 16.464 18.2547C16.341 18.1316 16.1741 18.0625 16 18.0625Z" fill="white"/>
<path d="M16.4375 13.25H15.5625V17.1875H16.4375V13.25Z" fill="white"/>
<path d="M21.6875 21.125H10.3125C10.2373 21.125 10.1634 21.1056 10.0979 21.0688C10.0324 21.0319 9.97753 20.9788 9.93852 20.9145C9.89951 20.8503 9.87772 20.7771 9.87524 20.702C9.87276 20.6268 9.88967 20.5523 9.92435 20.4856L15.6119 9.54814C15.6488 9.47711 15.7045 9.41757 15.773 9.37602C15.8414 9.33447 15.9199 9.3125 16 9.3125C16.0801 9.3125 16.1586 9.33447 16.227 9.37602C16.2955 9.41757 16.3512 9.47711 16.3882 9.54814L22.0757 20.4856C22.1103 20.5523 22.1272 20.6268 22.1248 20.702C22.1223 20.7771 22.1005 20.8503 22.0615 20.9145C22.0225 20.9788 21.9676 21.0319 21.9021 21.0688C21.8366 21.1056 21.7627 21.125 21.6875 21.125ZM11.0347 20.25H20.9653L20.9662 20.2486L16.0009 10.7H15.9991L11.0338 20.2486L11.0347 20.25Z" fill="white"/>
</svg>